<svg xmlns="http://www.w3.org/2000/svg" viewBox="0 0 200 40" preserveAspectRatio="none">
  <defs>
    <linearGradient id="astroGrad" x1="0%" y1="0%" x2="100%" y2="100%">
      <stop offset="0%" style="stop-color:#0a0a1e;stop-opacity:1" />
      <stop offset="50%" style="stop-color:#1a1a3e;stop-opacity:1" />
      <stop offset="100%" style="stop-color:#0a0a1e;stop-opacity:1" />
    </linearGradient>
  </defs>
  
  <rect width="200" height="40" fill="url(#astroGrad)"/>
  
  <!-- Зірки -->
  <circle cx="20" cy="10" r="1" fill="#ffffff" opacity="0.8"/>
  <circle cx="40" cy="15" r="0.8" fill="#ffffff" opacity="0.6"/>
  <circle cx="60" cy="8" r="1" fill="#ffffff" opacity="0.7"/>
  <circle cx="80" cy="18" r="0.8" fill="#ffffff" opacity="0.5"/>
  <circle cx="100" cy="10" r="1" fill="#ffffff" opacity="0.8"/>
  <circle cx="120" cy="15" r="0.8" fill="#ffffff" opacity="0.6"/>
  <circle cx="140" cy="8" r="1" fill="#ffffff" opacity="0.7"/>
  <circle cx="160" cy="18" r="0.8" fill="#ffffff" opacity="0.5"/>
  <circle cx="180" cy="12" r="1" fill="#ffffff" opacity="0.7"/>
  <circle cx="30" cy="30" r="0.8" fill="#ffffff" opacity="0.5"/>
  <circle cx="70" cy="32" r="1" fill="#ffffff" opacity="0.6"/>
  <circle cx="110" cy="28" r="0.8" fill="#ffffff" opacity="0.5"/>
  <circle cx="150" cy="30" r="1" fill="#ffffff" opacity="0.7"/>
  <circle cx="190" cy="32" r="0.8" fill="#ffffff" opacity="0.5"/>
  
  <!-- Планети -->
  <circle cx="50" cy="22" r="5" fill="none" stroke="#6a8ac4" stroke-width="1.5" opacity="0.7"/>
  <ellipse cx="50" cy="22" rx="8" ry="2" fill="none" stroke="#6a8ac4" stroke-width="1" opacity="0.5" transform="rotate(-30 50 22)"/>
  
  <circle cx="120" cy="20" r="4" fill="none" stroke="#c48a6a" stroke-width="1.5" opacity="0.7"/>
  
  <!-- Сузір'я лінії -->
  <line x1="160" y1="25" x2="175" y2="20" stroke="#5a7aa4" stroke-width="0.8" opacity="0.5"/>
  <line x1="175" y1="20" x2="185" y2="28" stroke="#5a7aa4" stroke-width="0.8" opacity="0.5"/>
  <line x1="185" y1="28" x2="195" y2="22" stroke="#5a7aa4" stroke-width="0.8" opacity="0.5"/>
  <circle cx="160" cy="25" r="1.5" fill="#5a7aa4" opacity="0.7"/>
  <circle cx="175" cy="20" r="1.5" fill="#5a7aa4" opacity="0.7"/>
  <circle cx="185" cy="28" r="1.5" fill="#5a7aa4" opacity="0.7"/>
  <circle cx="195" cy="22" r="1.5" fill="#5a7aa4" opacity="0.7"/>
</svg>
