<svg xmlns="http://www.w3.org/2000/svg" viewBox="0 0 200 40" preserveAspectRatio="none">
  <defs>
    <linearGradient id="bioGrad" x1="0%" y1="0%" x2="100%" y2="100%">
      <stop offset="0%" style="stop-color:#0a2e1a;stop-opacity:1" />
      <stop offset="50%" style="stop-color:#1a4a2d;stop-opacity:1" />
      <stop offset="100%" style="stop-color:#0a2e1a;stop-opacity:1" />
    </linearGradient>
  </defs>
  
  <rect width="200" height="40" fill="url(#bioGrad)"/>
  
  <!-- ДНК спіраль -->
  <path d="M20 15 Q35 5, 50 15 T80 15 T110 15 T140 15 T170 15" fill="none" stroke="#4aa86a" stroke-width="1.5" opacity="0.6"/>
  <path d="M20 25 Q35 35, 50 25 T80 25 T110 25 T140 25 T170 25" fill="none" stroke="#4aa86a" stroke-width="1.5" opacity="0.6"/>
  
  <!-- З'єднання ДНК -->
  <line x1="35" y1="15" x2="35" y2="25" stroke="#4aa86a" stroke-width="1" opacity="0.4"/>
  <line x1="50" y1="15" x2="50" y2="25" stroke="#4aa86a" stroke-width="1" opacity="0.4"/>
  <line x1="65" y1="15" x2="65" y2="25" stroke="#4aa86a" stroke-width="1" opacity="0.4"/>
  <line x1="80" y1="15" x2="80" y2="25" stroke="#4aa86a" stroke-width="1" opacity="0.4"/>
  <line x1="95" y1="15" x2="95" y2="25" stroke="#4aa86a" stroke-width="1" opacity="0.4"/>
  <line x1="110" y1="15" x2="110" y2="25" stroke="#4aa86a" stroke-width="1" opacity="0.4"/>
  <line x1="125" y1="15" x2="125" y2="25" stroke="#4aa86a" stroke-width="1" opacity="0.4"/>
  <line x1="140" y1="15" x2="140" y2="25" stroke="#4aa86a" stroke-width="1" opacity="0.4"/>
  <line x1="155" y1="15" x2="155" y2="25" stroke="#4aa86a" stroke-width="1" opacity="0.4"/>
  
  <!-- Клітини -->
  <circle cx="100" cy="20" r="6" fill="none" stroke="#6ac88a" stroke-width="1.5" opacity="0.7"/>
  <circle cx="100" cy="20" r="2" fill="#6ac88a" opacity="0.6"/>
</svg>
