<svg xmlns="http://www.w3.org/2000/svg" viewBox="0 0 200 40" preserveAspectRatio="none">
  <defs>
    <linearGradient id="warehouseGrad" x1="0%" y1="0%" x2="100%" y2="100%">
      <stop offset="0%" style="stop-color:#2a2a1a;stop-opacity:1" />
      <stop offset="50%" style="stop-color:#4a4a3a;stop-opacity:1" />
      <stop offset="100%" style="stop-color:#2a2a1a;stop-opacity:1" />
    </linearGradient>
  </defs>
  
  <rect width="200" height="40" fill="url(#warehouseGrad)"/>
  
  <!-- Складські полиці -->
  <rect x="20" y="15" width="25" height="20" fill="none" stroke="#7a7a5a" stroke-width="1.5" opacity="0.7"/>
  <line x1="20" y1="22" x2="45" y2="22" stroke="#7a7a5a" stroke-width="1" opacity="0.6"/>
  <line x1="20" y1="29" x2="45" y2="29" stroke="#7a7a5a" stroke-width="1" opacity="0.6"/>
  
  <rect x="55" y="15" width="25" height="20" fill="none" stroke="#7a7a5a" stroke-width="1.5" opacity="0.7"/>
  <line x1="55" y1="22" x2="80" y2="22" stroke="#7a7a5a" stroke-width="1" opacity="0.6"/>
  <line x1="55" y1="29" x2="80" y2="29" stroke="#7a7a5a" stroke-width="1" opacity="0.6"/>
  
  <rect x="90" y="15" width="25" height="20" fill="none" stroke="#7a7a5a" stroke-width="1.5" opacity="0.7"/>
  <line x1="90" y1="22" x2="115" y2="22" stroke="#7a7a5a" stroke-width="1" opacity="0.6"/>
  <line x1="90" y1="29" x2="115" y2="29" stroke="#7a7a5a" stroke-width="1" opacity="0.6"/>
  
  <!-- Коробки на полицях -->
  <rect x="25" y="17" width="15" height="5" fill="#6a6a4a" opacity="0.5"/>
  <rect x="60" y="24" width="15" height="5" fill="#6a6a4a" opacity="0.5"/>
  <rect x="95" y="31" width="15" height="4" fill="#6a6a4a" opacity="0.5"/>
  
  <!-- Складська діаграма -->
  <path d="M140 35 L140 15 L160 15 L160 35" fill="none" stroke="#8a8a6a" stroke-width="1.5" opacity="0.6"/>
  <line x1="140" y1="22" x2="160" y2="22" stroke="#8a8a6a" stroke-width="1" opacity="0.5"/>
  <line x1="140" y1="28" x2="160" y2="28" stroke="#8a8a6a" stroke-width="1" opacity="0.5"/>
</svg>
