<svg xmlns="http://www.w3.org/2000/svg" viewBox="0 0 200 40" preserveAspectRatio="none">
  <defs>
    <linearGradient id="engineerGrad" x1="0%" y1="0%" x2="100%" y2="100%">
      <stop offset="0%" style="stop-color:#1a2a3a;stop-opacity:1" />
      <stop offset="50%" style="stop-color:#3a5a7a;stop-opacity:1" />
      <stop offset="100%" style="stop-color:#1a2a3a;stop-opacity:1" />
    </linearGradient>
  </defs>
  
  <rect width="200" height="40" fill="url(#engineerGrad)"/>
  
  <!-- Шестерні -->
  <circle cx="40" cy="20" r="10" fill="none" stroke="#6a8aa4" stroke-width="2" opacity="0.7"/>
  <circle cx="40" cy="20" r="6" fill="none" stroke="#6a8aa4" stroke-width="1.5" opacity="0.6"/>
  <circle cx="40" cy="20" r="3" fill="#6a8aa4" opacity="0.5"/>
  <line x1="40" y1="10" x2="40" y2="14" stroke="#6a8aa4" stroke-width="2" opacity="0.7"/>
  <line x1="40" y1="26" x2="40" y2="30" stroke="#6a8aa4" stroke-width="2" opacity="0.7"/>
  <line x1="30" y1="20" x2="34" y2="20" stroke="#6a8aa4" stroke-width="2" opacity="0.7"/>
  <line x1="46" y1="20" x2="50" y2="20" stroke="#6a8aa4" stroke-width="2" opacity="0.7"/>
  
  <circle cx="80" cy="20" r="8" fill="none" stroke="#6a8aa4" stroke-width="2" opacity="0.6"/>
  <circle cx="80" cy="20" r="4" fill="none" stroke="#6a8aa4" stroke-width="1.5" opacity="0.5"/>
  <line x1="80" y1="12" x2="80" y2="15" stroke="#6a8aa4" stroke-width="2" opacity="0.6"/>
  <line x1="80" y1="25" x2="80" y2="28" stroke="#6a8aa4" stroke-width="2" opacity="0.6"/>
  <line x1="72" y1="20" x2="75" y2="20" stroke="#6a8aa4" stroke-width="2" opacity="0.6"/>
  <line x1="85" y1="20" x2="88" y2="20" stroke="#6a8aa4" stroke-width="2" opacity="0.6"/>
  
  <!-- Інженерні лінії -->
  <path d="M120 15 L140 15 L150 25 L170 25" fill="none" stroke="#7a9ab4" stroke-width="1.5" opacity="0.6"/>
  <path d="M120 25 L140 25 L150 35 L170 35" fill="none" stroke="#7a9ab4" stroke-width="1.5" opacity="0.5"/>
  
  <!-- Технічні позначки -->
  <circle cx="130" cy="20" r="2" fill="#7a9ab4" opacity="0.6"/>
  <circle cx="160" cy="30" r="2" fill="#7a9ab4" opacity="0.6"/>
  
  <!-- Сітка креслення -->
  <line x1="110" y1="10" x2="190" y2="10" stroke="#5a6a7a" stroke-width="0.5" opacity="0.3"/>
  <line x1="110" y1="20" x2="190" y2="20" stroke="#5a6a7a" stroke-width="0.5" opacity="0.3"/>
  <line x1="110" y1="30" x2="190" y2="30" stroke="#5a6a7a" stroke-width="0.5" opacity="0.3"/>
  <line x1="120" y1="10" x2="120" y2="35" stroke="#5a6a7a" stroke-width="0.5" opacity="0.3"/>
  <line x1="140" y1="10" x2="140" y2="35" stroke="#5a6a7a" stroke-width="0.5" opacity="0.3"/>
  <line x1="160" y1="10" x2="160" y2="35" stroke="#5a6a7a" stroke-width="0.5" opacity="0.3"/>
  <line x1="180" y1="10" x2="180" y2="35" stroke="#5a6a7a" stroke-width="0.5" opacity="0.3"/>
</svg>
