<svg xmlns="http://www.w3.org/2000/svg" viewBox="0 0 70 70">
  <defs>
    <linearGradient id="chemGrad" x1="0%" y1="0%" x2="100%" y2="100%">
      <stop offset="0%" style="stop-color:#9b59b6;stop-opacity:1" />
      <stop offset="100%" style="stop-color:#8e44ad;stop-opacity:1" />
    </linearGradient>
  </defs>
  
  <!-- Колба 1 -->
  <g>
    <path d="M15 45 L15 55 Q15 65, 25 65 L35 65 Q45 65, 45 55 L45 45" fill="none" stroke="#9b59b6" stroke-width="2">
      <animate attributeName="opacity" values="0.6;1;0.6" dur="3s" repeatCount="indefinite"/>
    </path>
    <circle cx="25" cy="58" r="4" fill="#9b59b6" opacity="0.5">
      <animate attributeName="cy" values="58;52;58" dur="2s" repeatCount="indefinite"/>
    </circle>
    <circle cx="35" cy="58" r="3" fill="#9b59b6" opacity="0.4">
      <animate attributeName="cy" values="58;50;58" dur="2.5s" repeatCount="indefinite"/>
    </circle>
    <circle cx="30" cy="50" r="3.5" fill="#9b59b6" opacity="0.4">
      <animate attributeName="cy" values="50;44;50" dur="2.2s" repeatCount="indefinite"/>
    </circle>
  </g>
  
  <!-- Колба 2 -->
  <g>
    <path d="M50 40 L50 50 Q50 60, 60 60 L68 60 Q68 60, 68 50 L68 40" fill="none" stroke="#8e44ad" stroke-width="2">
      <animate attributeName="opacity" values="0.5;0.9;0.5" dur="4s" repeatCount="indefinite"/>
    </path>
    <circle cx="55" cy="52" r="3" fill="#8e44ad" opacity="0.4">
      <animate attributeName="cy" values="52;46;52" dur="2.3s" repeatCount="indefinite"/>
    </circle>
    <circle cx="64" cy="52" r="2.5" fill="#8e44ad" opacity="0.3">
      <animate attributeName="cy" values="52;48;52" dur="2.7s" repeatCount="indefinite"/>
    </circle>
  </g>
  
  <!-- Молекула -->
  <circle cx="35" cy="25" r="6" fill="none" stroke="#a569bd" stroke-width="2" opacity="0.8"/>
  <circle cx="20" cy="35" r="4" fill="#a569bd" opacity="0.6"/>
  <circle cx="50" cy="30" r="4" fill="#a569bd" opacity="0.6"/>
  <line x1="24" y1="33" x2="31" y2="27" stroke="#a569bd" stroke-width="1.5" opacity="0.5"/>
  <line x1="39" y1="27" x2="46" y2="31" stroke="#a569bd" stroke-width="1.5" opacity="0.5"/>
</svg>
