<svg xmlns="http://www.w3.org/2000/svg" viewBox="0 0 200 40" preserveAspectRatio="none">
  <defs>
    <linearGradient id="chemGrad" x1="0%" y1="0%" x2="100%" y2="100%">
      <stop offset="0%" style="stop-color:#1a0a2e;stop-opacity:1" />
      <stop offset="50%" style="stop-color:#2d1a4a;stop-opacity:1" />
      <stop offset="100%" style="stop-color:#1a0a2e;stop-opacity:1" />
    </linearGradient>
  </defs>
  
  <rect width="200" height="40" fill="url(#chemGrad)"/>
  
  <!-- Хімічні колби -->
  <path d="M30 10 L30 25 Q30 35 40 35 L50 35 Q60 35 60 25 L60 10" fill="none" stroke="#7a4a9a" stroke-width="1.5" opacity="0.6"/>
  <circle cx="45" cy="28" r="3" fill="#7a4a9a" opacity="0.5"/>
  <circle cx="40" cy="22" r="2" fill="#7a4a9a" opacity="0.4"/>
  <circle cx="50" cy="20" r="2.5" fill="#7a4a9a" opacity="0.4"/>
  
  <path d="M140 10 L140 25 Q140 35 150 35 L160 35 Q170 35 170 25 L170 10" fill="none" stroke="#9a4a7a" stroke-width="1.5" opacity="0.6"/>
  <circle cx="155" cy="28" r="3" fill="#9a4a7a" opacity="0.5"/>
  <circle cx="150" cy="22" r="2" fill="#9a4a7a" opacity="0.4"/>
  
  <!-- Молекулярні зв'язки -->
  <circle cx="100" cy="20" r="4" fill="none" stroke="#b87ac4" stroke-width="1.5" opacity="0.7"/>
  <circle cx="85" cy="20" r="2.5" fill="#b87ac4" opacity="0.6"/>
  <circle cx="115" cy="20" r="2.5" fill="#b87ac4" opacity="0.6"/>
  <line x1="87.5" y1="20" x2="96" y2="20" stroke="#b87ac4" stroke-width="1" opacity="0.5"/>
  <line x1="104" y1="20" x2="112.5" y2="20" stroke="#b87ac4" stroke-width="1" opacity="0.5"/>
</svg>
