<svg xmlns="http://www.w3.org/2000/svg" viewBox="0 0 200 40" preserveAspectRatio="none">
  <defs>
    <linearGradient id="constrGrad" x1="0%" y1="0%" x2="100%" y2="100%">
      <stop offset="0%" style="stop-color:#1e2a3a;stop-opacity:1" />
      <stop offset="50%" style="stop-color:#3a4a5a;stop-opacity:1" />
      <stop offset="100%" style="stop-color:#1e2a3a;stop-opacity:1" />
    </linearGradient>
  </defs>
  
  <rect width="200" height="40" fill="url(#constrGrad)"/>
  
  <!-- Будівельні конструкції -->
  <rect x="20" y="20" width="15" height="15" fill="none" stroke="#6a8aa4" stroke-width="1.5" opacity="0.7"/>
  <rect x="35" y="20" width="15" height="15" fill="none" stroke="#6a8aa4" stroke-width="1.5" opacity="0.7"/>
  <rect x="50" y="20" width="15" height="15" fill="none" stroke="#6a8aa4" stroke-width="1.5" opacity="0.7"/>
  
  <rect x="27.5" y="10" width="15" height="10" fill="none" stroke="#6a8aa4" stroke-width="1.5" opacity="0.7"/>
  <rect x="42.5" y="10" width="15" height="10" fill="none" stroke="#6a8aa4" stroke-width="1.5" opacity="0.7"/>
  
  <polygon points="35,10 42.5,5 50,10" fill="none" stroke="#6a8aa4" stroke-width="1.5" opacity="0.7"/>
  
  <!-- Кран -->
  <line x1="120" y1="35" x2="120" y2="10" stroke="#7a9ab4" stroke-width="2" opacity="0.7"/>
  <line x1="120" y1="10" x2="160" y2="10" stroke="#7a9ab4" stroke-width="2" opacity="0.7"/>
  <line x1="160" y1="10" x2="160" y2="25" stroke="#7a9ab4" stroke-width="1.5" opacity="0.6"/>
  <line x1="110" y1="15" x2="120" y2="10" stroke="#7a9ab4" stroke-width="1.5" opacity="0.6"/>
  
  <!-- Інструменти -->
  <rect x="170" y="25" width="3" height="10" fill="#8a9aa4" opacity="0.6"/>
  <rect x="168" y="25" width="7" height="2" fill="#8a9aa4" opacity="0.6"/>
  
  <!-- Сітка -->
  <line x1="80" y1="5" x2="80" y2="35" stroke="#5a6a7a" stroke-width="0.5" opacity="0.3"/>
  <line x1="90" y1="5" x2="90" y2="35" stroke="#5a6a7a" stroke-width="0.5" opacity="0.3"/>
  <line x1="100" y1="5" x2="100" y2="35" stroke="#5a6a7a" stroke-width="0.5" opacity="0.3"/>
  <line x1="80" y1="15" x2="100" y2="15" stroke="#5a6a7a" stroke-width="0.5" opacity="0.3"/>
  <line x1="80" y1="25" x2="100" y2="25" stroke="#5a6a7a" stroke-width="0.5" opacity="0.3"/>
</svg>
