<svg xmlns="http://www.w3.org/2000/svg" viewBox="0 0 200 40" preserveAspectRatio="none">
  <defs>
    <linearGradient id="forestGrad" x1="0%" y1="0%" x2="100%" y2="100%">
      <stop offset="0%" style="stop-color:#1a3a1a;stop-opacity:1" />
      <stop offset="50%" style="stop-color:#2a5a2a;stop-opacity:1" />
      <stop offset="100%" style="stop-color:#1a3a1a;stop-opacity:1" />
    </linearGradient>
  </defs>
  
  <rect width="200" height="40" fill="url(#forestGrad)"/>
  
  <!-- Лісосіка / інструменти -->
  <path d="M30 35 L30 15 L35 15 L35 35" fill="#3a5a3a" opacity="0.7"/>
  <path d="M30 15 L45 5 L50 5 L35 15" fill="#4a6a4a" opacity="0.7"/>
  
  <!-- Сокира -->
  <path d="M80 20 L95 20 L95 25 L80 25 Z" fill="#5a7a5a" opacity="0.6"/>
  <path d="M95 20 L105 15 L105 30 L95 25 Z" fill="#7a9a7a" opacity="0.7"/>
  
  <!-- Дерева на фоні -->
  <path d="M140 35 L140 25 Q140 20, 145 20 Q150 20, 150 25 L150 35" fill="#2a5a3a" opacity="0.6"/>
  <circle cx="145" cy="16" r="6" fill="#3a7a4a" opacity="0.7"/>
  
  <path d="M170 35 L170 28 Q170 24, 175 24 Q180 24, 180 28 L180 35" fill="#2a5a3a" opacity="0.6"/>
  <circle cx="175" cy="20" r="5" fill="#3a7a4a" opacity="0.7"/>
  
  <!-- Тирса/опилки -->
  <circle cx="60" cy="32" r="2" fill="#5a7a5a" opacity="0.5"/>
  <circle cx="70" cy="34" r="1.5" fill="#5a7a5a" opacity="0.5"/>
  <circle cx="120" cy="33" r="2" fill="#5a7a5a" opacity="0.5"/>
</svg>
