<svg xmlns="http://www.w3.org/2000/svg" viewBox="0 0 70 70">
  <defs>
    <linearGradient id="hydroGrad" x1="0%" y1="0%" x2="100%" y2="100%">
      <stop offset="0%" style="stop-color:#3498db;stop-opacity:1" />
      <stop offset="100%" style="stop-color:#2980b9;stop-opacity:1" />
    </linearGradient>
  </defs>
  
  <!-- Хвилі -->
  <path d="M5 35 Q20 30, 35 35 T65 35" fill="none" stroke="#3498db" stroke-width="2" opacity="0.5">
    <animate attributeName="d" values="M5 35 Q20 30, 35 35 T65 35; M5 40 Q20 35, 35 40 T65 40; M5 35 Q20 30, 35 35 T65 35" dur="3s" repeatCount="indefinite"/>
  </path>
  <path d="M5 45 Q20 40, 35 45 T65 45" fill="none" stroke="#3498db" stroke-width="2" opacity="0.5">
    <animate attributeName="d" values="M5 45 Q20 40, 35 45 T65 45; M5 50 Q20 45, 35 50 T65 50; M5 45 Q20 40, 35 45 T65 45" dur="3s" repeatCount="indefinite" begin="1s"/>
  </path>
  
  <!-- Краплі -->
  <path d="M20 25 Q20 20, 25 25 Q25 30, 20 30 Q15 30, 15 25 Q15 20, 20 25" fill="#3498db" opacity="0.6">
    <animate attributeName="cy" values="0;-5;0" dur="2s" repeatCount="indefinite"/>
  </path>
  <path d="M35 20 Q35 15, 40 20 Q40 25, 35 25 Q30 25, 30 20 Q30 15, 35 20" fill="#3498db" opacity="0.5">
    <animate attributeName="cy" values="0;-5;0" dur="2.5s" repeatCount="indefinite" begin="0.5s"/>
  </path>
  <path d="M50 25 Q50 20, 55 25 Q55 30, 50 30 Q45 30, 45 25 Q45 20, 50 25" fill="#3498db" opacity="0.6">
    <animate attributeName="cy" values="0;-5;0" dur="2.3s" repeatCount="indefinite" begin="1s"/>
  </path>
  
  <!-- Підземний шар -->
  <path d="M5 55 Q20 52, 35 55 Q50 58, 65 55 L65 65 L5 65 Z" fill="#2980b9" opacity="0.4"/>
</svg>
