<svg xmlns="http://www.w3.org/2000/svg" viewBox="0 0 200 40" preserveAspectRatio="none">
  <defs>
    <linearGradient id="stoneGrad" x1="0%" y1="0%" x2="100%" y2="100%">
      <stop offset="0%" style="stop-color:#1a2a3a;stop-opacity:1" />
      <stop offset="50%" style="stop-color:#3a4a5a;stop-opacity:1" />
      <stop offset="100%" style="stop-color:#1a2a3a;stop-opacity:1" />
    </linearGradient>
  </defs>
  
  <rect width="200" height="40" fill="url(#stoneGrad)"/>
  
  <!-- Кам'яні блоки -->
  <rect x="20" y="20" width="25" height="15" fill="none" stroke="#6a7a8a" stroke-width="1.5" opacity="0.7"/>
  <rect x="45" y="20" width="25" height="15" fill="none" stroke="#6a7a8a" stroke-width="1.5" opacity="0.7"/>
  <rect x="70" y="20" width="25" height="15" fill="none" stroke="#6a7a8a" stroke-width="1.5" opacity="0.7"/>
  
  <rect x="32" y="10" width="25" height="10" fill="none" stroke="#6a7a8a" stroke-width="1.5" opacity="0.7"/>
  <rect x="57" y="10" width="25" height="10" fill="none" stroke="#6a7a8a" stroke-width="1.5" opacity="0.7"/>
  
  <!-- Інструменти каменяра -->
  <path d="M120 35 L120 15 L125 15 L125 35" fill="#5a6a7a" opacity="0.6"/>
  <path d="M115 15 L130 10 L135 10 L120 15" fill="#6a7a8a" opacity="0.7"/>
  
  <!-- Долото -->
  <path d="M150 25 L170 25 L170 28 L150 28 Z" fill="#7a8a9a" opacity="0.6"/>
  <path d="M170 25 L180 22 L180 31 L170 28 Z" fill="#8a9aaa" opacity="0.7"/>
  
  <!-- Кам'яна крихта -->
  <circle cx="40" cy="37" r="1.5" fill="#5a6a7a" opacity="0.5"/>
  <circle cx="60" cy="38" r="1" fill="#5a6a7a" opacity="0.5"/>
  <circle cx="90" cy="37" r="1.5" fill="#5a6a7a" opacity="0.5"/>
</svg>
