<svg xmlns="http://www.w3.org/2000/svg" viewBox="0 0 200 40" preserveAspectRatio="none">
  <defs>
    <linearGradient id="quarryGrad" x1="0%" y1="0%" x2="100%" y2="100%">
      <stop offset="0%" style="stop-color:#2a3a2a;stop-opacity:1" />
      <stop offset="50%" style="stop-color:#4a5a4a;stop-opacity:1" />
      <stop offset="100%" style="stop-color:#2a3a2a;stop-opacity:1" />
    </linearGradient>
  </defs>
  
  <rect width="200" height="40" fill="url(#quarryGrad)"/>
  
  <!-- Кар'єр / видобуток -->
  <path d="M10 35 L40 25 L70 35 L100 25 L130 35 L160 25 L190 35 L200 30 L200 40 L0 40 Z" fill="#3a5a3a" opacity="0.5"/>
  
  <!-- Камені в кар'єрі -->
  <circle cx="30" cy="30" r="4" fill="#4a6a4a" opacity="0.6"/>
  <circle cx="60" cy="32" r="3" fill="#4a6a4a" opacity="0.6"/>
  <circle cx="90" cy="29" r="4" fill="#4a6a4a" opacity="0.6"/>
  <circle cx="120" cy="31" r="3" fill="#4a6a4a" opacity="0.6"/>
  <circle cx="150" cy="28" r="4" fill="#4a6a4a" opacity="0.6"/>
  
  <!-- Копальний інструмент -->
  <path d="M170 35 L170 15 L175 15 L175 35" fill="#5a7a5a" opacity="0.6"/>
  <path d="M165 15 L180 10 L185 10 L170 15" fill="#6a8a6a" opacity="0.7"/>
  
  <!-- Сходи кар'єру -->
  <line x1="20" y1="25" x2="40" y2="30" stroke="#5a7a5a" stroke-width="1.5" opacity="0.5"/>
  <line x1="50" y1="25" x2="70" y2="30" stroke="#5a7a5a" stroke-width="1.5" opacity="0.5"/>
  <line x1="80" y1="25" x2="100" y2="30" stroke="#5a7a5a" stroke-width="1.5" opacity="0.5"/>
</svg>
