<svg xmlns="http://www.w3.org/2000/svg" viewBox="0 0 200 40" preserveAspectRatio="none">
  <defs>
    <linearGradient id="woodGrad" x1="0%" y1="0%" x2="100%" y2="100%">
      <stop offset="0%" style="stop-color:#2a1a0a;stop-opacity:1" />
      <stop offset="50%" style="stop-color:#4a3a2a;stop-opacity:1" />
      <stop offset="100%" style="stop-color:#2a1a0a;stop-opacity:1" />
    </linearGradient>
  </defs>
  
  <rect width="200" height="40" fill="url(#woodGrad)"/>
  
  <!-- Колоди дерева -->
  <ellipse cx="30" cy="25" rx="12" ry="10" fill="none" stroke="#6a5a4a" stroke-width="2" opacity="0.7"/>
  <ellipse cx="30" cy="25" rx="8" ry="6" fill="none" stroke="#6a5a4a" stroke-width="1.5" opacity="0.5"/>
  <ellipse cx="30" cy="25" rx="4" ry="3" fill="none" stroke="#6a5a4a" stroke-width="1.5" opacity="0.5"/>
  
  <ellipse cx="70" cy="25" rx="12" ry="10" fill="none" stroke="#6a5a4a" stroke-width="2" opacity="0.7"/>
  <ellipse cx="70" cy="25" rx="8" ry="6" fill="none" stroke="#6a5a4a" stroke-width="1.5" opacity="0.5"/>
  <ellipse cx="70" cy="25" rx="4" ry="3" fill="none" stroke="#6a5a4a" stroke-width="1.5" opacity="0.5"/>
  
  <!-- Пила -->
  <path d="M120 20 L160 20 L160 25 L120 25 Z" fill="#5a4a3a" opacity="0.6"/>
  <path d="M120 20 L115 18 L115 27 L120 25" fill="#6a5a4a" opacity="0.7"/>
  
  <!-- Зубці пили -->
  <path d="M120 25 L123 28 L126 25 L129 28 L132 25 L135 28 L138 25" fill="none" stroke="#7a6a5a" stroke-width="1" opacity="0.6"/>
  
  <!-- Тирса -->
  <circle cx="50" cy="35" r="1.5" fill="#5a4a3a" opacity="0.5"/>
  <circle cx="90" cy="36" r="1" fill="#5a4a3a" opacity="0.5"/>
  <circle cx="140" cy="35" r="1.5" fill="#5a4a3a" opacity="0.5"/>
</svg>
